<svg width="1200" height="630" viewBox="0 0 1200 630" xmlns="http://www.w3.org/2000/svg">
  <!-- Background -->
  <rect width="1200" height="630" fill="#E2E8F0"/>
  <!-- "WE'RE HIRING" Text as Paths -->
  <g fill="#4A5568" transform="translate(260, 260) scale(1.1)">
    <path d="M63.8 108.6V69.5h-41V58.6h41V30.4h-23V19.5h23V0h10.9v19.5h23v10.9h-23v28.2h41v10.9h-41v39.1H63.8zM104.2 108.6V0h33.3v10.9h-22.4v32.9h21.1v10.9h-21.1v32.9h22.4v10.9h-33.3zM170.8 108.6V0h10.9v108.6h-10.9zM214.4 91.9c-12.2 0-22.1-9.9-22.1-22.1s9.9-22.1 22.1-22.1 22.1 9.9 22.1 22.1-9.9 22.1-22.1 22.1zm0-11.2c6.2 0 11.2-5 11.2-11.2s-5-11.2-11.2-11.2-11.2 5-11.2 11.2 5 11.2 11.2 11.2zM247.4 108.6V0h10.9v108.6h-10.9zM291.6 108.6V46.9L281.2 0h11.8l5.4 37.5 5.4-37.5h11.8l-10.4 46.9v61.7h-10.9zM335.3 108.6V0h33.3v10.9h-22.4v32.9h21.1v10.9h-21.1v32.9h22.4v10.9h-33.3zM379.5 108.6V0h10.9v108.6h-10.9zM401.3 108.6V0h33.3v10.9h-22.4v32.9h21.1v10.9h-21.1v32.9h22.4v10.9h-33.3zM467.9 108.6L454.4 0h11.9l7.1 58.9 7.1-58.9h11.9l-13.5 108.6h-10.9zM501.5 108.6V0h10.9v108.6h-10.9zM523.3 108.6V0h33.3v10.9h-22.4v32.9h21.1v10.9h-21.1v32.9h22.4v10.9h-33.3zM567.5 108.6V0h10.9v108.6h-10.9z"/>
  </g>
  <!-- "Hired!" Banner -->
  <g transform="rotate(-45 50 630)">
    <rect x="-400" y="0" width="1200" height="150" fill="#E21E26"/>
    <g fill="white" transform="translate(100, 45) scale(0.8)">
      <path d="M22.6 108.6V0h10.9v108.6H22.6zM44.4 108.6V0h10.9v108.6H44.4zM66.2 108.6V0h33.3v10.9H77.1v32.9h21.1v10.9H77.1v32.9h22.4v10.9H66.2zM110.4 108.6V0h33.3v10.9h-22.4v32.9h21.1v10.9h-21.1v32.9h22.4v10.9h-33.3zM154.6 108.6V0h10.9v108.6h-10.9zM176.4 108.6V0h10.9v108.6h-10.9zM187.3 0v10.9h10.9V0h-10.9z"/>
    </g>
  </g>
</svg>